<?xml version="1.0" standalone="no"?>
<!DOCTYPE svg PUBLIC "-//W3C//DTD SVG 20010904//EN"
 "http://www.w3.org/TR/2001/REC-SVG-20010904/DTD/svg10.dtd">
<svg version="1.0" xmlns="http://www.w3.org/2000/svg"
 width="700.000000pt" height="700.000000pt" viewBox="0 0 700.000000 700.000000"
 preserveAspectRatio="xMidYMid meet">
<metadata>
Created by potrace 1.14, written by Peter Selinger 2001-2017
</metadata>
<g transform="translate(0.000000,700.000000) scale(0.100000,-0.100000)"
fill="#000000" stroke="none">
<path d="M4580 6364 c-265 -36 -514 -144 -770 -333 -100 -74 -152 -123 -216
-202 -154 -193 -269 -423 -319 -644 -27 -114 -30 -151 -29 -328 l1 -168 -41 5
c-40 6 -69 11 -131 21 -16 3 -46 8 -65 11 -286 46 -694 186 -1007 345 -103 53
-339 188 -368 211 -5 5 -55 40 -110 78 -99 69 -196 142 -245 183 -14 12 -55
46 -90 76 -36 30 -159 149 -275 266 -217 219 -243 238 -307 228 -75 -12 -103
-40 -158 -158 -48 -105 -130 -347 -129 -380 1 -5 -10 -73 -17 -110 -32 -167
-19 -426 30 -611 30 -117 107 -294 157 -366 11 -14 19 -28 19 -30 0 -2 -26 -2
-57 0 -48 3 -64 0 -92 -20 -61 -41 -75 -78 -75 -192 1 -221 47 -410 149 -621
89 -184 219 -347 390 -489 77 -64 97 -83 78 -72 -17 9 -81 -19 -106 -47 -52
-59 -54 -114 -7 -235 106 -274 314 -528 572 -701 87 -58 243 -137 335 -171 35
-12 61 -26 58 -30 -7 -11 -218 -114 -306 -149 -90 -35 -277 -98 -311 -105 -12
-2 -43 -9 -68 -16 -25 -7 -56 -14 -70 -16 -14 -2 -34 -6 -46 -9 -12 -3 -39 -7
-60 -10 -21 -3 -45 -8 -52 -10 -56 -19 -437 -26 -620 -11 -99 8 -104 7 -145
-17 -74 -43 -98 -143 -52 -213 50 -77 358 -257 625 -365 298 -120 714 -231
1025 -273 22 -3 72 -10 110 -15 39 -6 104 -13 145 -17 41 -3 84 -8 94 -10 87
-16 511 -24 671 -11 563 43 1159 250 1715 595 58 36 107 68 110 72 3 3 18 14
35 24 16 11 34 23 40 28 5 5 53 40 105 79 194 146 431 366 589 549 40 47 83
96 96 110 33 37 204 273 257 355 170 263 362 664 443 925 9 30 19 62 22 70 3
8 7 20 8 25 2 6 12 42 23 80 20 66 64 245 77 310 21 107 44 237 49 280 4 28
11 84 16 125 18 141 28 279 31 425 3 120 1 115 104 221 47 48 415 430 504 523
89 93 104 180 43 244 -65 69 -115 72 -251 17 -53 -22 -100 -40 -104 -40 -3 0
14 29 39 64 82 118 150 289 158 399 7 98 -65 176 -159 173 -31 -1 -69 -19
-165 -77 -230 -140 -441 -229 -604 -255 -33 -5 -43 -2 -70 23 -186 170 -526
334 -783 377 -18 4 -48 9 -65 12 -61 11 -292 10 -378 -2z"/>
</g>
</svg>
